<mxfile host="65bd71144e">
    <diagram id="6DXzQuvdufL6PUV2b2Tl" name="Page-1">
        <mxGraphModel dx="1085" dy="855" grid="1" gridSize="10" guides="1" tooltips="1" connect="1" arrows="1" fold="1" page="1" pageScale="1" pageWidth="1100" pageHeight="850" math="0" shadow="0">
            <root>
                <mxCell id="0"/>
                <mxCell id="1" parent="0"/>
                <mxCell id="2" value="&lt;font style=&quot;font-size: 22px;&quot;&gt;W420G BAMOE Workshop&lt;/font&gt;" style="ellipse;whiteSpace=wrap;html=1;aspect=fixed;" parent="1" vertex="1">
                    <mxGeometry x="260" y="10" width="680" height="680" as="geometry"/>
                </mxCell>
                <mxCell id="8" value="&lt;font style=&quot;font-size: 14px;&quot;&gt;BAMOE Developer Virtual Machine(s)&amp;nbsp;&lt;br&gt;for Windows &amp;amp; Linux&lt;br&gt;&lt;/font&gt;&lt;hr&gt;&lt;font style=&quot;font-size: 14px;&quot;&gt;BAMOE OpenShift (local) Cluster&lt;/font&gt;" style="rounded=0;whiteSpace=wrap;html=1;" parent="1" vertex="1">
                    <mxGeometry x="470" y="550" width="260" height="100" as="geometry"/>
                </mxCell>
                <mxCell id="10" value="BAMOE Process Automation &lt;br&gt;&lt;br&gt;Learning Material" style="ellipse;whiteSpace=wrap;html=1;aspect=fixed;" parent="1" vertex="1">
                    <mxGeometry x="720" y="130" width="140" height="140" as="geometry"/>
                </mxCell>
                <mxCell id="12" value="BAMOE Decision Automation &lt;br&gt;&lt;br&gt;Learning Material" style="ellipse;whiteSpace=wrap;html=1;aspect=fixed;" parent="1" vertex="1">
                    <mxGeometry x="330" y="130" width="140" height="140" as="geometry"/>
                </mxCell>
                <mxCell id="13" value="BAMOE Decision Automation &lt;br&gt;&lt;br&gt;Labs &amp;amp; Guides" style="ellipse;whiteSpace=wrap;html=1;aspect=fixed;" parent="1" vertex="1">
                    <mxGeometry x="330" y="370" width="140" height="140" as="geometry"/>
                </mxCell>
                <mxCell id="14" value="BAMOE Process Automation &lt;br&gt;&lt;br&gt;Labs &amp;amp; Guides" style="ellipse;whiteSpace=wrap;html=1;aspect=fixed;" parent="1" vertex="1">
                    <mxGeometry x="720" y="370" width="140" height="140" as="geometry"/>
                </mxCell>
                <mxCell id="15" value="BAMOE Setup&lt;br&gt;&lt;br&gt;OpenShift" style="ellipse;whiteSpace=wrap;html=1;aspect=fixed;" parent="1" vertex="1">
                    <mxGeometry x="525" y="20" width="140" height="140" as="geometry"/>
                </mxCell>
                <mxCell id="17" value="BAMOE Pre-Req&#39;s&lt;br&gt;&lt;br&gt;VS Code + BAMOE Dev Tools&lt;br&gt;&lt;br&gt;Maven,&lt;br&gt;Git, Quarkus, etc." style="ellipse;whiteSpace=wrap;html=1;aspect=fixed;" vertex="1" parent="1">
                    <mxGeometry x="525" y="390" width="140" height="140" as="geometry"/>
                </mxCell>
            </root>
        </mxGraphModel>
    </diagram>
</mxfile>